Patient4_TMGait_0pt2_01_left_11_EMG.mot
version=1
nRows=13
nColumns=33
inDegrees=no
endheader
time	1LAddLong	2LGlutMax	3LGlutMed	4LIliopsoas	5LSemiMemb	6LBicFemLong	7LRecFem	8LVastMed	9LVastLat	10LGasMed	11LTibAnt	12lTibPost	13LPeroneusLong	14LSol	15LExtDigLong	16LFlexDigLong	17RAddLong	18RGlutMax	19RGlutMed	20RIliopsoas	21RSemiMemb	22RBicFemLong	23RRecFem	24RVastMed	25RVastLat	26RGasMed	27RTibAnt	28RTibPost	29RPeroneusLong	30RSol	31RExtDigLong	32RFlexDigLong
26.275	-0.007019	-0.034485	-0.10193	0.001831	-0.042725	-0.063629	0.057068	-0.000916	-0.24796	0.074005	0.011444	0.005188	-0.22705	-0.11978	0.003815	-0.012512	-0.020294	0.10361	-0.36346	0.1799	0.018005	-0.044556	-0.20569	0.13077	-0.03006	-0.047607	0.033875	-0.042572	-0.057678	-0.039673	0.000916	-0.018768
26.276	-0.010681	-0.019684	-0.083771	0.005035	-0.07431	-0.55161	0.017548	0.00885	-0.11231	0.086517	-0.016632	-0.011444	0.12558	0.034485	0.078888	-0.009003	0.003204	0.067596	-0.19791	0.015717	-0.16007	-0.055237	-0.48355	0.14938	-0.060577	-0.041809	-0.065002	0.032806	0.27893	-0.062714	-0.001678	-0.023346
26.277	0.012054	-0.039673	-0.024261	-0.001831	-0.034637	-0.62759	-0.011749	-0.001678	-0.1149	-0.045929	0.040588	-0.000916	-0.017548	0.17334	0.007324	-0.001526	0.038147	0.14084	-0.12177	-0.21393	-0.27893	-0.1004	-0.63446	-0.040131	-0.31296	-0.001373	-0.040588	0.046692	0.11551	-0.047302	-0.003967	-0.030212
26.278	0.031128	-0.041962	0.047455	0.00946	0.049133	-0.68634	0.00061	-0.014343	-0.044861	-0.13763	0.085754	0.001526	0.019684	0.17197	0.34332	-0.013275	0.01709	0.12405	0.25284	-0.36697	-0.41702	0.008087	-0.68527	-0.24307	-0.34592	0.097351	0.016632	0.008545	-0.034637	-0.21622	-0.002747	-0.029907
26.279	0.036011	0.004425	-0.06897	0.010529	0.078888	-0.23224	-0.027161	-0.001068	0.013428	-0.068359	0.10178	-0.012054	0.026398	0.18097	0.077209	-0.013275	-0.005646	0.039063	0.16159	-0.23727	-0.22903	0.02594	-0.3688	-0.11643	-0.13443	0.066223	0.056915	-0.017548	-0.24765	-0.004578	-0.000305	-0.03006
26.28	0.02182	0.011292	-0.077667	0.010223	0.087585	0.028992	0.018311	-0.000916	0.024109	-0.025024	0.074463	0.011749	-0.097809	0.21057	0.39414	0.001526	-0.012817	0.015259	-0.26947	-0.18036	0.3714	-0.013885	0.079041	0.04303	-0.093231	0.034637	0.082245	-0.023193	-0.25436	0.006104	-0.002289	-0.025635
26.281	0.014191	-0.019684	0.026855	0.0177	0.006256	0.10696	0.003662	0.006409	-0.010986	-0.0177	0.15015	0.009155	-0.18112	0.31723	-0.12222	0.005493	-0.023804	0.025482	-0.26871	-0.025635	0.45075	-0.068512	0.001373	0.082092	-0.16068	0.035706	0.083313	-0.010376	-0.070496	0.22125	0.000763	-0.033264
26.282	0.010223	-0.03952	0.057983	0.013885	-0.037994	-0.20111	-0.026245	-0.000763	-0.022125	-0.041962	-0.031738	-0.000153	-0.19104	0.35248	-0.28503	0.0177	-0.0354	0.066223	-0.09903	0.22125	0.271	-0.11887	-0.12177	-0.002747	-0.18234	0.034485	0.11276	-0.014954	-0.087585	0.20386	-0.003204	-0.029755
26.283	0.00885	-0.062561	0.1564	-0.009613	-0.072632	-0.12833	-0.009308	0.003815	-0.028687	-0.08728	-0.000153	0.00473	0.021973	0.25696	-0.057678	0.023499	-0.034943	0.034027	0.21896	0.36682	0.051575	-0.097656	-0.092468	0.032196	-0.16525	0.020752	0.15289	-0.037689	0.37857	-0.016327	0.00061	-0.027313
26.284	0	-0.070343	0.029907	-0.00412	-0.084839	-0.050507	0.065002	0.008087	-0.091553	-0.059204	-0.067902	-0.002289	0.095062	0.084381	0.053711	0.006104	-0.037231	0.053558	0.39993	0.38986	0.056305	-0.086823	0.016327	0.27649	-0.13168	0.009003	0.28351	-0.012054	0.6073	0.063782	-0.002289	-0.027771
26.285	-0.002747	-0.046844	0.121	0.003815	-0.061951	-0.18265	0.26001	0.011139	-0.17853	-0.024414	0.10025	0.006104	0.073547	0.17761	-0.32684	-0.005798	-0.018616	0.061035	0.014648	0.31326	0.12177	-0.014801	-0.078583	0.3125	-0.16922	-0.013885	0.41092	0.020752	0.39429	0.25207	0.00061	-0.024567
26.286	0.080109	-0.0177	0.10147	0.02121	-0.007629	-0.39703	0.23148	0.016327	-0.15595	0.056	-0.006714	0.003967	0.23636	0.033569	-0.40649	-0.003052	-0.000153	-0.008698	-0.20111	0.20554	0.10986	-0.059052	-0.062561	0.22476	-0.16083	-0.019531	0.31143	0.024567	0.14954	0.15137	0.000305	-0.014496
26.287	0.022888	-0.050812	0.053711	0.026855	0.1297	-0.14694	0.12573	0.005493	-0.12955	0.14999	0.040741	0	0.17044	-0.026703	-0.37781	-0.010681	0.002289	-0.015106	-0.13473	0.18265	0.089722	-0.13412	-0.12421	0.092468	-0.007324	-0.007019	-0.077209	0.033264	0.15243	0.060577	-0.001373	-0.014801
